<svg xmlns="http://www.w3.org/2000/svg" width="80" height="100" viewBox="0 0 80 100"><path fill="#ff0000" d="M 30 0 h 10 v 10 h -10 L 30 0 M 40 0 h 10 v 10 h -10 L 40 0 M 10 10 h 10 v 10 h -10 L 10 10 M 20 10 h 10 v 10 h -10 L 20 10 M 30 10 h 10 v 10 h -10 L 30 10 M 40 10 h 10 v 10 h -10 L 40 10 M 0 20 h 10 v 10 h -10 L 0 20 M 10 20 h 10 v 10 h -10 L 10 20 M 20 20 h 10 v 10 h -10 L 20 20 M 30 20 h 10 v 10 h -10 L 30 20 M 40 20 h 10 v 10 h -10 L 40 20 M 10 30 h 10 v 10 h -10 L 10 30 M 20 30 h 10 v 10 h -10 L 20 30 M 30 30 h 10 v 10 h -10 L 30 30 M 40 30 h 10 v 10 h -10 L 40 30 M 30 40 h 10 v 10 h -10 L 30 40 M 40 40 h 10 v 10 h -10 L 40 40 "/><path fill="#000000" d="M 40 50 h 10 v 10 h -10 L 40 50 M 40 60 h 10 v 10 h -10 L 40 60 M 20 70 h 10 v 10 h -10 L 20 70 M 30 70 h 10 v 10 h -10 L 30 70 M 40 70 h 10 v 10 h -10 L 40 70 M 50 70 h 10 v 10 h -10 L 50 70 M 0 80 h 10 v 10 h -10 L 0 80 M 10 80 h 10 v 10 h -10 L 10 80 M 20 80 h 10 v 10 h -10 L 20 80 M 30 80 h 10 v 10 h -10 L 30 80 M 40 80 h 10 v 10 h -10 L 40 80 M 50 80 h 10 v 10 h -10 L 50 80 M 60 80 h 10 v 10 h -10 L 60 80 M 70 80 h 10 v 10 h -10 L 70 80 M 0 90 h 10 v 10 h -10 L 0 90 M 10 90 h 10 v 10 h -10 L 10 90 M 20 90 h 10 v 10 h -10 L 20 90 M 30 90 h 10 v 10 h -10 L 30 90 M 40 90 h 10 v 10 h -10 L 40 90 M 50 90 h 10 v 10 h -10 L 50 90 M 60 90 h 10 v 10 h -10 L 60 90 M 70 90 h 10 v 10 h -10 L 70 90 "/></svg>