<svg xmlns="http://www.w3.org/2000/svg" width="170" height="170" viewBox="0 0 170 170"><path fill="#000000" d="M 60 0 h 10 v 10 h -10 L 60 0 M 70 0 h 10 v 10 h -10 L 70 0 M 80 0 h 10 v 10 h -10 L 80 0 M 90 0 h 10 v 10 h -10 L 90 0 M 100 0 h 10 v 10 h -10 L 100 0 M 40 10 h 10 v 10 h -10 L 40 10 M 50 10 h 10 v 10 h -10 L 50 10 M 110 10 h 10 v 10 h -10 L 110 10 M 120 10 h 10 v 10 h -10 L 120 10 M 30 20 h 10 v 10 h -10 L 30 20 M 130 20 h 10 v 10 h -10 L 130 20 M 20 30 h 10 v 10 h -10 L 20 30 M 140 30 h 10 v 10 h -10 L 140 30 M 10 40 h 10 v 10 h -10 L 10 40 M 150 40 h 10 v 10 h -10 L 150 40 M 10 50 h 10 v 10 h -10 L 10 50 M 50 50 h 10 v 10 h -10 L 50 50 M 60 50 h 10 v 10 h -10 L 60 50 M 100 50 h 10 v 10 h -10 L 100 50 M 110 50 h 10 v 10 h -10 L 110 50 M 150 50 h 10 v 10 h -10 L 150 50 M 0 60 h 10 v 10 h -10 L 0 60 M 50 60 h 10 v 10 h -10 L 50 60 M 60 60 h 10 v 10 h -10 L 60 60 M 100 60 h 10 v 10 h -10 L 100 60 M 110 60 h 10 v 10 h -10 L 110 60 M 160 60 h 10 v 10 h -10 L 160 60 M 0 70 h 10 v 10 h -10 L 0 70 M 160 70 h 10 v 10 h -10 L 160 70 M 0 80 h 10 v 10 h -10 L 0 80 M 160 80 h 10 v 10 h -10 L 160 80 M 0 90 h 10 v 10 h -10 L 0 90 M 160 90 h 10 v 10 h -10 L 160 90 M 0 100 h 10 v 10 h -10 L 0 100 M 40 100 h 10 v 10 h -10 L 40 100 M 120 100 h 10 v 10 h -10 L 120 100 M 160 100 h 10 v 10 h -10 L 160 100 M 10 110 h 10 v 10 h -10 L 10 110 M 50 110 h 10 v 10 h -10 L 50 110 M 110 110 h 10 v 10 h -10 L 110 110 M 150 110 h 10 v 10 h -10 L 150 110 M 10 120 h 10 v 10 h -10 L 10 120 M 60 120 h 10 v 10 h -10 L 60 120 M 70 120 h 10 v 10 h -10 L 70 120 M 80 120 h 10 v 10 h -10 L 80 120 M 90 120 h 10 v 10 h -10 L 90 120 M 100 120 h 10 v 10 h -10 L 100 120 M 150 120 h 10 v 10 h -10 L 150 120 M 20 130 h 10 v 10 h -10 L 20 130 M 140 130 h 10 v 10 h -10 L 140 130 M 30 140 h 10 v 10 h -10 L 30 140 M 130 140 h 10 v 10 h -10 L 130 140 M 40 150 h 10 v 10 h -10 L 40 150 M 50 150 h 10 v 10 h -10 L 50 150 M 110 150 h 10 v 10 h -10 L 110 150 M 120 150 h 10 v 10 h -10 L 120 150 M 60 160 h 10 v 10 h -10 L 60 160 M 70 160 h 10 v 10 h -10 L 70 160 M 80 160 h 10 v 10 h -10 L 80 160 M 90 160 h 10 v 10 h -10 L 90 160 M 100 160 h 10 v 10 h -10 L 100 160 "/><path fill="#ffff00" d="M 60 10 h 10 v 10 h -10 L 60 10 M 70 10 h 10 v 10 h -10 L 70 10 M 80 10 h 10 v 10 h -10 L 80 10 M 90 10 h 10 v 10 h -10 L 90 10 M 100 10 h 10 v 10 h -10 L 100 10 M 40 20 h 10 v 10 h -10 L 40 20 M 50 20 h 10 v 10 h -10 L 50 20 M 60 20 h 10 v 10 h -10 L 60 20 M 70 20 h 10 v 10 h -10 L 70 20 M 80 20 h 10 v 10 h -10 L 80 20 M 90 20 h 10 v 10 h -10 L 90 20 M 100 20 h 10 v 10 h -10 L 100 20 M 110 20 h 10 v 10 h -10 L 110 20 M 120 20 h 10 v 10 h -10 L 120 20 M 30 30 h 10 v 10 h -10 L 30 30 M 40 30 h 10 v 10 h -10 L 40 30 M 50 30 h 10 v 10 h -10 L 50 30 M 60 30 h 10 v 10 h -10 L 60 30 M 70 30 h 10 v 10 h -10 L 70 30 M 80 30 h 10 v 10 h -10 L 80 30 M 90 30 h 10 v 10 h -10 L 90 30 M 100 30 h 10 v 10 h -10 L 100 30 M 110 30 h 10 v 10 h -10 L 110 30 M 120 30 h 10 v 10 h -10 L 120 30 M 130 30 h 10 v 10 h -10 L 130 30 M 20 40 h 10 v 10 h -10 L 20 40 M 30 40 h 10 v 10 h -10 L 30 40 M 40 40 h 10 v 10 h -10 L 40 40 M 50 40 h 10 v 10 h -10 L 50 40 M 60 40 h 10 v 10 h -10 L 60 40 M 70 40 h 10 v 10 h -10 L 70 40 M 80 40 h 10 v 10 h -10 L 80 40 M 90 40 h 10 v 10 h -10 L 90 40 M 100 40 h 10 v 10 h -10 L 100 40 M 110 40 h 10 v 10 h -10 L 110 40 M 120 40 h 10 v 10 h -10 L 120 40 M 130 40 h 10 v 10 h -10 L 130 40 M 140 40 h 10 v 10 h -10 L 140 40 M 20 50 h 10 v 10 h -10 L 20 50 M 30 50 h 10 v 10 h -10 L 30 50 M 40 50 h 10 v 10 h -10 L 40 50 M 70 50 h 10 v 10 h -10 L 70 50 M 80 50 h 10 v 10 h -10 L 80 50 M 90 50 h 10 v 10 h -10 L 90 50 M 120 50 h 10 v 10 h -10 L 120 50 M 130 50 h 10 v 10 h -10 L 130 50 M 140 50 h 10 v 10 h -10 L 140 50 M 10 60 h 10 v 10 h -10 L 10 60 M 20 60 h 10 v 10 h -10 L 20 60 M 30 60 h 10 v 10 h -10 L 30 60 M 40 60 h 10 v 10 h -10 L 40 60 M 70 60 h 10 v 10 h -10 L 70 60 M 80 60 h 10 v 10 h -10 L 80 60 M 90 60 h 10 v 10 h -10 L 90 60 M 120 60 h 10 v 10 h -10 L 120 60 M 130 60 h 10 v 10 h -10 L 130 60 M 140 60 h 10 v 10 h -10 L 140 60 M 150 60 h 10 v 10 h -10 L 150 60 M 10 70 h 10 v 10 h -10 L 10 70 M 20 70 h 10 v 10 h -10 L 20 70 M 30 70 h 10 v 10 h -10 L 30 70 M 40 70 h 10 v 10 h -10 L 40 70 M 50 70 h 10 v 10 h -10 L 50 70 M 60 70 h 10 v 10 h -10 L 60 70 M 70 70 h 10 v 10 h -10 L 70 70 M 80 70 h 10 v 10 h -10 L 80 70 M 90 70 h 10 v 10 h -10 L 90 70 M 100 70 h 10 v 10 h -10 L 100 70 M 110 70 h 10 v 10 h -10 L 110 70 M 120 70 h 10 v 10 h -10 L 120 70 M 130 70 h 10 v 10 h -10 L 130 70 M 140 70 h 10 v 10 h -10 L 140 70 M 150 70 h 10 v 10 h -10 L 150 70 M 10 80 h 10 v 10 h -10 L 10 80 M 20 80 h 10 v 10 h -10 L 20 80 M 30 80 h 10 v 10 h -10 L 30 80 M 40 80 h 10 v 10 h -10 L 40 80 M 50 80 h 10 v 10 h -10 L 50 80 M 60 80 h 10 v 10 h -10 L 60 80 M 70 80 h 10 v 10 h -10 L 70 80 M 80 80 h 10 v 10 h -10 L 80 80 M 90 80 h 10 v 10 h -10 L 90 80 M 100 80 h 10 v 10 h -10 L 100 80 M 110 80 h 10 v 10 h -10 L 110 80 M 120 80 h 10 v 10 h -10 L 120 80 M 130 80 h 10 v 10 h -10 L 130 80 M 140 80 h 10 v 10 h -10 L 140 80 M 150 80 h 10 v 10 h -10 L 150 80 M 10 90 h 10 v 10 h -10 L 10 90 M 20 90 h 10 v 10 h -10 L 20 90 M 30 90 h 10 v 10 h -10 L 30 90 M 40 90 h 10 v 10 h -10 L 40 90 M 50 90 h 10 v 10 h -10 L 50 90 M 60 90 h 10 v 10 h -10 L 60 90 M 70 90 h 10 v 10 h -10 L 70 90 M 80 90 h 10 v 10 h -10 L 80 90 M 90 90 h 10 v 10 h -10 L 90 90 M 100 90 h 10 v 10 h -10 L 100 90 M 110 90 h 10 v 10 h -10 L 110 90 M 120 90 h 10 v 10 h -10 L 120 90 M 130 90 h 10 v 10 h -10 L 130 90 M 140 90 h 10 v 10 h -10 L 140 90 M 150 90 h 10 v 10 h -10 L 150 90 M 10 100 h 10 v 10 h -10 L 10 100 M 20 100 h 10 v 10 h -10 L 20 100 M 30 100 h 10 v 10 h -10 L 30 100 M 50 100 h 10 v 10 h -10 L 50 100 M 60 100 h 10 v 10 h -10 L 60 100 M 70 100 h 10 v 10 h -10 L 70 100 M 80 100 h 10 v 10 h -10 L 80 100 M 90 100 h 10 v 10 h -10 L 90 100 M 100 100 h 10 v 10 h -10 L 100 100 M 110 100 h 10 v 10 h -10 L 110 100 M 130 100 h 10 v 10 h -10 L 130 100 M 140 100 h 10 v 10 h -10 L 140 100 M 150 100 h 10 v 10 h -10 L 150 100 M 20 110 h 10 v 10 h -10 L 20 110 M 30 110 h 10 v 10 h -10 L 30 110 M 40 110 h 10 v 10 h -10 L 40 110 M 60 110 h 10 v 10 h -10 L 60 110 M 70 110 h 10 v 10 h -10 L 70 110 M 80 110 h 10 v 10 h -10 L 80 110 M 90 110 h 10 v 10 h -10 L 90 110 M 100 110 h 10 v 10 h -10 L 100 110 M 120 110 h 10 v 10 h -10 L 120 110 M 130 110 h 10 v 10 h -10 L 130 110 M 140 110 h 10 v 10 h -10 L 140 110 M 20 120 h 10 v 10 h -10 L 20 120 M 30 120 h 10 v 10 h -10 L 30 120 M 40 120 h 10 v 10 h -10 L 40 120 M 50 120 h 10 v 10 h -10 L 50 120 M 110 120 h 10 v 10 h -10 L 110 120 M 120 120 h 10 v 10 h -10 L 120 120 M 130 120 h 10 v 10 h -10 L 130 120 M 140 120 h 10 v 10 h -10 L 140 120 M 30 130 h 10 v 10 h -10 L 30 130 M 40 130 h 10 v 10 h -10 L 40 130 M 50 130 h 10 v 10 h -10 L 50 130 M 60 130 h 10 v 10 h -10 L 60 130 M 70 130 h 10 v 10 h -10 L 70 130 M 80 130 h 10 v 10 h -10 L 80 130 M 90 130 h 10 v 10 h -10 L 90 130 M 100 130 h 10 v 10 h -10 L 100 130 M 110 130 h 10 v 10 h -10 L 110 130 M 120 130 h 10 v 10 h -10 L 120 130 M 130 130 h 10 v 10 h -10 L 130 130 M 40 140 h 10 v 10 h -10 L 40 140 M 50 140 h 10 v 10 h -10 L 50 140 M 60 140 h 10 v 10 h -10 L 60 140 M 70 140 h 10 v 10 h -10 L 70 140 M 80 140 h 10 v 10 h -10 L 80 140 M 90 140 h 10 v 10 h -10 L 90 140 M 100 140 h 10 v 10 h -10 L 100 140 M 110 140 h 10 v 10 h -10 L 110 140 M 120 140 h 10 v 10 h -10 L 120 140 M 60 150 h 10 v 10 h -10 L 60 150 M 70 150 h 10 v 10 h -10 L 70 150 M 80 150 h 10 v 10 h -10 L 80 150 M 90 150 h 10 v 10 h -10 L 90 150 M 100 150 h 10 v 10 h -10 L 100 150 "/></svg>